Coordinates
version=1
nRows=11
nColumns=63
inDegrees=yes

Units are S.I. units (second, meters, Newtons, ...)
If the header above contains a line with 'inDegrees', this indicates whether rotational values are in degrees (yes) or radians (no).

endheader
time	pelvis_tilt	pelvis_list	pelvis_rotation	pelvis_tx	pelvis_ty	pelvis_tz	hip_flexion_r	hip_adduction_r	hip_rotation_r	knee_angle_r	knee_angle_r_beta	ankle_angle_r	subtalar_angle_r	mtp_angle_r	hip_flexion_l	hip_adduction_l	hip_rotation_l	knee_angle_l	knee_angle_l_beta	ankle_angle_l	subtalar_angle_l	mtp_angle_l	L5_S1_Flex_Ext	L5_S1_Lat_Bending	L5_S1_axial_rotation	L4_L5_Flex_Ext	L4_L5_Lat_Bending	L4_L5_axial_rotation	L3_L4_Flex_Ext	L3_L4_Lat_Bending	L3_L4_axial_rotation	L2_L3_Flex_Ext	L2_L3_Lat_Bending	L2_L3_axial_rotation	L1_L2_Flex_Ext	L1_L2_Lat_Bending	L1_L2_axial_rotation	L1_T12_Flex_Ext	L1_T12_Lat_Bending	L1_T12_axial_rotation	Abs_r3	Abs_r2	Abs_r1	Abs_t1	Abs_t2	neck_flexion	neck_bending	neck_rotation	arm_flex_r	arm_add_r	arm_rot_r	elbow_flex_r	pro_sup_r	wrist_flex_r	wrist_dev_r	arm_flex_l	arm_add_l	arm_rot_l	elbow_flex_l	pro_sup_l	wrist_flex_l	wrist_dev_l
     11.24200000	    -53.37117564	     -2.63943120	     -0.60951674	     -0.25574073	      1.01933477	      0.01055608	    116.66269653	     -2.62471337	      2.38818061	     83.44171898	      1.45633273	     12.76508285	     -6.20718652	      0.00000000	     98.08039430	     -1.86061852	      9.58666871	     89.46831629	      1.56151670	      6.13680914	     -0.48207016	      0.00000000	     -0.07485978	      0.35736791	      0.17749893	     -0.13902209	      0.47529932	      0.18859262	     -0.12298713	      0.86890434	      0.18859262	     -0.08555724	      0.86890434	      0.15531157	     -0.06951479	      0.72874464	      0.14421788	     -0.04277488	      0.55356289	      0.13312420	     -0.53471590	      4.04261728	      0.98719582	      0.00000000	      0.00000000	     -0.00000000	      0.00000000	      0.00000000	     80.08555726	    -12.79538927	     39.40177580	     20.33450957	     35.92984694	      0.00000000	      5.00000014	     74.26202186	    -13.29802152	     26.56752549	     29.76651627	     45.65411951	      0.00000000	      5.00000014
     11.25000000	    -53.40471939	     -2.99320067	     -0.32722141	     -0.25570358	      1.01929865	      0.00973963	    115.15829623	     -3.14556195	      1.83506412	     80.83185559	      1.41078202	     12.43735658	     -6.20077052	      0.00000000	     99.30793006	     -1.53385258	     10.01976137	     91.99040560	      1.60553546	      6.23903830	     -0.37891548	      0.00000000	     -0.07513682	      0.39793337	      0.12983146	     -0.13953660	      0.52925139	      0.13794593	     -0.12344229	      0.96753520	      0.13794593	     -0.08587388	      0.96753520	      0.11360253	     -0.06977205	      0.81146573	      0.10548806	     -0.04293318	      0.61639880	      0.09737360	     -0.53669482	      4.50150191	      0.72208365	      0.00000000	      0.00000000	     -0.00000000	      0.00000000	      0.00000000	     80.07022969	    -12.91742998	     39.13566843	     20.48631205	     35.77241368	      0.00000000	      5.00000014	     74.15123353	    -13.24421125	     26.60219777	     30.06024984	     45.65917437	      0.00000000	      5.00000014
     11.25800000	    -53.45198110	     -3.03352649	      0.12074461	     -0.25575161	      1.01936120	      0.00898194	    113.73407478	     -3.63311150	      1.68503137	     78.31574781	      1.36686766	     11.79573832	     -6.36787026	      0.00000000	    100.47579657	     -1.08996529	     10.17552869	     94.29456586	      1.64575064	      6.70564258	     -0.06782605	      0.00000000	     -0.07555820	      0.39533557	      0.03301790	     -0.14031912	      0.52579631	      0.03508152	     -0.12413456	      0.96121891	      0.03508152	     -0.08635546	      0.96121891	      0.02889067	     -0.07016334	      0.80616830	      0.02682705	     -0.04317395	      0.61237480	      0.02476343	     -0.53970463	      4.47211507	      0.18363567	      0.00000000	      0.00000000	     -0.00000000	      0.00000000	      0.00000000	     80.00651778	    -12.88635740	     38.90717538	     20.62558175	     35.62037054	      0.00000000	      5.00000014	     74.13472925	    -13.31463854	     26.55578796	     30.26078792	     45.65094216	      0.00000000	      5.00000014
     11.26700000	    -53.50427586	     -3.02917975	      0.52538377	     -0.25577946	      1.01944437	      0.00839735	    112.29326121	     -4.06853767	      1.49686894	     75.81373951	      1.32319937	     11.02718680	     -6.67003607	      0.00000000	    101.67640958	     -0.76472401	     10.28490030	     96.51691716	      1.68453799	      7.32964107	      0.42935909	      0.00000000	     -0.07495045	      0.38465684	     -0.05309060	     -0.13919049	      0.51159359	     -0.05640876	     -0.12313610	      0.93525463	     -0.05640876	     -0.08566087	      0.93525463	     -0.04645427	     -0.06959899	      0.78439222	     -0.04313611	     -0.04282669	      0.59583344	     -0.03981795	     -0.53536360	      4.35131507	     -0.29527398	      0.00000000	      0.00000000	     -0.00000000	      0.00000000	      0.00000000	     79.91532936	    -12.88313727	     38.65621081	     20.72718127	     35.45166015	      0.00000000	      5.00000014	     74.13652921	    -13.39301204	     26.59004035	     30.46645937	     45.65771685	      0.00000000	      5.00000014
     11.27500000	    -53.55649843	     -2.73767694	      1.12803802	     -0.25585931	      1.01957790	      0.00767790	    110.91705509	     -4.63960764	      1.60653809	     73.43466693	      1.28167672	     10.31595711	     -6.58938096	      0.00000000	    102.85269776	     -0.25578315	     10.07640241	     98.57518131	      1.72046147	      7.82296941	      0.53355771	      0.00000000	     -0.07515338	      0.33593214	     -0.17750073	     -0.13956734	      0.44678974	     -0.18859453	     -0.12346949	      0.81678540	     -0.18859453	     -0.08589280	      0.81678540	     -0.15531314	     -0.06978743	      0.68503282	     -0.14421934	     -0.04294264	      0.52035888	     -0.13312555	     -0.53681308	      3.80013153	     -0.98720582	      0.00000000	      0.00000000	     -0.00000000	      0.00000000	      0.00000000	     79.82913097	    -12.86237527	     38.60402754	     20.80400241	     35.41301488	      0.00000000	      5.00000014	     74.24862571	    -13.48141747	     26.61540060	     30.54711723	     45.66340298	      0.00000000	      5.00000014
     11.28300000	    -53.61186376	     -2.49505002	      1.56606209	     -0.25592088	      1.01979140	      0.00723690	    109.44855493	     -5.09004044	      1.53064720	     70.97144076	      1.23868532	      9.68709863	     -6.55685529	      0.00000000	    104.10348272	      0.01817795	      9.90445550	    100.57606768	      1.75538353	      8.34116568	      0.72043251	      0.00000000	     -0.07617507	      0.29292551	     -0.26418996	     -0.14146472	      0.38959093	     -0.28070183	     -0.12514802	      0.71221908	     -0.28070183	     -0.08706048	      0.71221908	     -0.23116621	     -0.07073617	      0.59733370	     -0.21465434	     -0.04352643	      0.45374161	     -0.19814247	     -0.54411088	      3.31363193	     -1.46934528	      0.00000000	      0.00000000	     -0.00000000	      0.00000000	      0.00000000	     79.72445883	    -12.89753335	     38.52000639	     20.88001228	     35.38671984	      0.00000000	      5.00000014	     74.34614317	    -13.56988770	     26.71361747	     30.71225971	     45.68070246	      0.00000000	      5.00000014
     11.29200000	    -53.64512300	     -2.54693239	      1.51261424	     -0.25582213	      1.01988425	      0.00732689	    107.82749390	     -5.13162619	      0.83753000	     68.41426549	      1.19405419	      8.64739953	     -7.44408575	      0.00000000	    105.46542421	     -0.18059014	     10.26913939	    102.71444979	      1.79270534	      9.35229338	      1.94039681	      0.00000000	     -0.07503987	      0.29033205	     -0.23950574	     -0.13935654	      0.38614162	     -0.25447485	     -0.12328300	      0.70591334	     -0.25447485	     -0.08576307	      0.70591334	     -0.20956752	     -0.06968202	      0.59204511	     -0.19459841	     -0.04287778	      0.44972434	     -0.17962930	     -0.53600229	      3.28429417	     -1.33205907	      0.00000000	      0.00000000	     -0.00000000	      0.00000000	      0.00000000	     79.62898852	    -13.03895419	     37.97871362	     20.92207137	     35.10169903	      0.00000000	      5.00000014	     74.41478346	    -13.59150371	     27.41818480	     30.86648884	     45.80770588	      0.00000000	      5.00000014
     11.30000000	    -53.66715896	     -2.15052480	      2.02500407	     -0.25571262	      1.02009008	      0.00701115	    106.30023206	     -5.62554827	      0.86576543	     66.04409766	      1.15268696	      8.10604327	     -7.22298627	      0.00000000	    106.75794711	      0.09022412	      9.85609904	    104.50914899	      1.82402875	      9.72721280	      1.99915239	      0.00000000	     -0.07498911	      0.22673859	     -0.33498596	     -0.13926228	      0.30156233	     -0.35592258	     -0.12319961	      0.55129221	     -0.35592258	     -0.08570506	      0.55129221	     -0.29311271	     -0.06963489	      0.46236534	     -0.27217609	     -0.04284878	      0.35121808	     -0.25123947	     -0.53563974	      2.56491231	     -1.86309140	      0.00000000	      0.00000000	     -0.00000000	      0.00000000	      0.00000000	     79.45339571	    -13.08009286	     37.90779563	     20.99808306	     35.09014634	      0.00000000	      5.00000014	     74.52043290	    -13.67288297	     27.50672421	     30.93698636	     45.82257712	      0.00000000	      5.00000014
     11.30800000	    -53.66863382	     -1.81618638	      2.36620555	     -0.25545283	      1.02027613	      0.00695152	    104.65860729	     -5.96135770	      0.76178755	     63.59770705	      1.10998938	      7.66722007	     -7.03299909	      0.00000000	    108.10982093	      0.18141496	      9.51031582	    106.28011403	      1.85493792	     10.01153409	      2.09474714	      0.00000000	     -0.07524492	      0.17095889	     -0.38989363	     -0.13973735	      0.22737533	     -0.41426199	     -0.12361988	      0.41566945	     -0.41426199	     -0.08599742	      0.41566945	     -0.34115693	     -0.06987244	      0.34861938	     -0.31678858	     -0.04299495	      0.26481533	     -0.29242023	     -0.53746696	      1.93392119	     -2.16847143	      0.00000000	      0.00000000	     -0.00000000	      0.00000000	      0.00000000	     79.27982241	    -13.16862736	     37.79845423	     21.03874733	     35.06673176	      0.00000000	      5.00000014	     74.59510229	    -13.69737712	     27.67833697	     30.99639440	     45.85164290	      0.00000000	      5.00000014
     11.31700000	    -53.65325154	     -1.56608444	      2.57428523	     -0.25507964	      1.02042363	      0.00708404	    102.90751226	     -6.16986333	      0.57273353	     61.10436614	      1.06647238	      7.35186960	     -6.82313074	      0.00000000	    109.52941241	      0.14274824	      9.23350465	    108.00485595	      1.88504034	     10.15149679	      2.22326735	      0.00000000	     -0.07518938	      0.12599345	     -0.41514579	     -0.13963419	      0.16757129	     -0.44109241	     -0.12352863	      0.30634048	     -0.44109241	     -0.08593394	      0.30634048	     -0.36325257	     -0.06982086	      0.25692584	     -0.33730596	     -0.04296321	      0.19516385	     -0.31135934	     -0.53707021	      1.42526311	     -2.30891636	      0.00000000	      0.00000000	     -0.00000000	      0.00000000	      0.00000000	     79.06825594	    -13.28335073	     37.63979580	     21.07011687	     35.03364957	      0.00000000	      5.00000014	     74.67207825	    -13.70353271	     27.93036853	     31.02027397	     45.89480617	      0.00000000	      5.00000014
     11.32500000	    -53.58464841	     -1.53591904	      2.43909016	     -0.25452402	      1.02026645	      0.00769613	    101.03190862	     -6.02888547	      0.13312580	     58.63569070	      1.02338586	      7.24758608	     -6.52519852	      0.00000000	    111.06781403	     -0.16647998	      9.32312191	    109.84996388	      1.91724355	     10.16667393	      2.72876313	      0.00000000	     -0.07406648	      0.11045437	     -0.35915186	     -0.13754885	      0.14690431	     -0.38159885	     -0.12168381	      0.26855875	     -0.38159885	     -0.08465058	      0.26855875	     -0.31425788	     -0.06877813	      0.22523855	     -0.29181089	     -0.04232158	      0.17109382	     -0.26936390	     -0.52904943	      1.24948191	     -1.99749490	      0.00000000	      0.00000000	     -0.00000000	      0.00000000	      0.00000000	     78.53060947	    -13.25413066	     35.04123951	     21.35287881	     33.82128663	      0.00000000	      5.00000014	     75.05502205	    -13.90369265	     30.31664265	     30.74055229	     46.31555742	      0.00000000	      5.00000014
